# xmcd
#
# Track frame offsets: 
#        150
#        14697
#        25398
#        38174
#        53016
#        68350
#        82120
#        98044
#        111054
#        124050
#        137095
#        156566
#        172442
#
# Disc length: 2500 seconds
#
# Revision: 0
# Processed by: cddbd v1.5.2PL0 Copyright (c) Steve Scherf et al.
# Submitted via: ExactAudioCopyFreeDBPlugin 1.0
#
DISCID=b309c20d
DTITLE=Various Artist - Top 40 Country Songs Volume 1 Disc 3
DYEAR=2012
DGENRE=Country
TTITLE0=T.G. Sheppard - Did you Feel Good All Over
TTITLE1=Janie Fricke - Down to my Last
TTITLE2=Janie Fricke - Do Me with Love
TTITLE3=T.G. Sheppard - Somewhere Down the Line
TTITLE4=Janie Fricke - The First Word in Memory is Me
TTITLE5=Janie Fricke - Somebody Else's Fire
TTITLE6=Juice Newton - Cheap Love
TTITLE7=T. Graham Brown - I Tell it Like it is
TTITLE8=Tanya Tucker - One Love at a Time
TTITLE9=T. Graham Brown - Brilliant Conversationalist
TTITLE10=T.G. Sheppard - One for the Money
TTITLE11=Juice Newton - What Can I do with my Life
TTITLE12=T. Graham Brown - The Last Resort
EXTD=
EXTT0=
EXTT1=
EXTT2=
EXTT3=
EXTT4=
EXTT5=
EXTT6=
EXTT7=
EXTT8=
EXTT9=
EXTT10=
EXTT11=
EXTT12=
PLAYORDER=
